<svg width="141" height="32" viewBox="0 0 141 32" fill="none" xmlns="http://www.w3.org/2000/svg">
<path d="M59.7623 7.57958V1.65195H66.9532C66.9532 4.92498 64.2699 7.57958 60.9615 7.57958H59.7623Z" fill="#EDC700"/>
<path d="M67.0018 10.7378H59.7623V26.3829H67.0018V10.7378Z" fill="#2A7671"/>
<path d="M14.5258 0.0150576C6.56861 -0.352517 0 6.05729 0 14.0179C0 16.1918 0 18.9539 0 20.3682H7.37776V14.2069V13.2197C7.37776 11.1263 8.44838 9.14841 10.254 8.05969C16.5116 4.28243 22.8859 11.2103 19.3454 17.9842C18.3243 19.9411 16.2219 21.1103 13.9994 21.0473L13.8333 21.0438V28.0348C21.8047 28.0558 28.2143 21.2854 27.7161 13.1287C27.2885 6.1308 21.5962 0.344124 14.5258 0.0150576Z" fill="#2A7671"/>
<path d="M0 23.8077V31.0472H0.0138688C4.0046 31.0472 7.23949 27.8061 7.23949 23.8077H0Z" fill="#EDC700"/>
<path d="M43.742 26.6258C51.5837 26.6258 57.36 21.2401 57.36 13.8959C57.36 6.55178 51.5837 1.16608 43.742 1.16608C35.9003 1.16608 30.1241 6.55178 30.1241 13.8959C30.1241 21.2401 35.9003 26.6258 43.742 26.6258ZM43.742 20.8903C40.0312 20.8903 37.1256 18.1275 37.1256 13.8959C37.1256 9.66429 40.0312 6.9015 43.742 6.9015C47.4529 6.9015 50.3585 9.66429 50.3585 13.8959C50.3585 18.1275 47.4529 20.8903 43.742 20.8903Z" fill="#2A7671"/>
<path d="M87.7018 1.65569V14.7003L76.8844 1.65569H71.1782V26.1361H77.9696V13.0916L88.787 26.1361H94.4932V1.65569H87.7018Z" fill="#2A7671"/>
<path d="M104.599 26.1361H111.53V7.1463H119.022V1.65569H97.072V7.1463H104.599V26.1361Z" fill="#2A7671"/>
<path d="M130.148 26.6258C137.429 26.6258 141 22.9887 141 18.7221C141 9.69927 127.102 12.497 127.102 8.75502C127.102 7.531 128.152 6.55178 131.058 6.55178C133.193 6.55178 135.504 7.18127 137.849 8.44027L139.985 3.29937C137.569 1.90049 134.279 1.16608 131.093 1.16608C123.811 1.16608 120.241 4.73323 120.241 9.10474C120.241 18.1975 134.174 15.3647 134.174 19.2466C134.174 20.4357 133.053 21.2401 130.183 21.2401C127.347 21.2401 124.266 20.2608 122.096 18.827L119.82 23.9329C122.131 25.5416 126.122 26.6258 130.148 26.6258Z" fill="#2A7671"/>
</svg>
