<svg width="142" height="31" viewBox="0 0 142 31" fill="none" xmlns="http://www.w3.org/2000/svg">
<path d="M60.0329 7.56802V1.64941H67.2128C67.2128 4.91746 64.5336 7.56802 61.2303 7.56802H60.0329Z" fill="#EDC700"/>
<path d="M67.2614 10.7212H60.0329V26.3424H67.2614V10.7212Z" fill="white"/>
<path d="M14.8655 0.0150347C6.92035 -0.35198 0.361755 6.04806 0.361755 13.9965C0.361755 16.1672 0.361755 18.925 0.361755 20.3372H7.72827V14.1853V13.1996C7.72827 11.1094 8.79726 9.13447 10.6001 8.04741C16.8482 4.2759 23.2128 11.1932 19.6777 17.9568C18.6581 19.9107 16.5589 21.0782 14.3398 21.0153L14.174 21.0118V27.992C22.1332 28.013 28.533 21.2529 28.0356 13.1087C27.6087 6.12146 21.925 0.3436 14.8655 0.0150347Z" fill="white"/>
<path d="M0.361755 23.7715V30.9999H0.375603C4.36026 30.9999 7.59021 27.7638 7.59021 23.7715H0.361755Z" fill="#EDC700"/>
<path d="M44.0371 26.5849C51.8669 26.5849 57.6344 21.2075 57.6344 13.8745C57.6344 6.54156 51.8669 1.16406 44.0371 1.16406C36.2074 1.16406 30.4399 6.54156 30.4399 13.8745C30.4399 21.2075 36.2074 26.5849 44.0371 26.5849ZM44.0371 20.8583C40.332 20.8583 37.4308 18.0997 37.4308 13.8745C37.4308 9.64933 40.332 6.89075 44.0371 6.89075C47.7423 6.89075 50.6435 9.64933 50.6435 13.8745C50.6435 18.0997 47.7423 20.8583 44.0371 20.8583Z" fill="white"/>
<path d="M87.9299 1.65293V14.6776L77.129 1.65293H71.4315V26.0961H78.2126V13.0714L89.0134 26.0961H94.711V1.65293H87.9299Z" fill="white"/>
<path d="M104.801 26.0961H111.722V7.13518H119.202V1.65293H97.2859V7.13518H104.801V26.0961Z" fill="white"/>
<path d="M130.311 26.5849C137.582 26.5849 141.147 22.9534 141.147 18.6933C141.147 9.68425 127.27 12.4778 127.27 8.74144C127.27 7.51928 128.319 6.54156 131.22 6.54156C133.352 6.54156 135.659 7.17009 138.001 8.42717L140.133 3.29411C137.721 1.89736 134.436 1.16406 131.255 1.16406C123.984 1.16406 120.419 4.72578 120.419 9.09063C120.419 18.1695 134.331 15.3411 134.331 19.2171C134.331 20.4043 133.212 21.2075 130.346 21.2075C127.515 21.2075 124.439 20.2297 122.272 18.7981L120 23.8962C122.307 25.5025 126.291 26.5849 130.311 26.5849Z" fill="white"/>
</svg>
